<svg xmlns="http://www.w3.org/2000/svg" viewBox="0 0 24 24">
              <path d="M21.75 17.75A2.25 2.25 0 0 0 24 15.5v-2.251c0-.679-.27-1.33-.75-1.81l-2.47-2.47a.75.75 0 0 0-.53-.219H3.75a.75.75 0 0 0-.53.22L.75 11.44c-.48.48-.75 1.13-.75 1.809V15.5a2.25 2.25 0 0 0 2.25 2.25h19.5zm0-1.5H2.25a.75.75 0 0 1-.75-.75v-2.251c0-.28.112-.55.31-.749l2.47-2.47-.53.22h16.5l-.53-.22 2.47 2.47c.198.199.31.468.31.75v2.25a.75.75 0 0 1-.75.75zm-20.838-3h3.717a.75.75 0 0 1 .53.22l1.06 1.06a.75.75 0 0 0 1.061-1.06l-1.06-1.061a2.25 2.25 0 0 0-1.59-.659H.911a.75.75 0 0 0 0 1.5zm22.176-1.5h-3.717a2.25 2.25 0 0 0-1.59.659l-1.061 1.06a.75.75 0 1 0 1.06 1.061l1.061-1.06a.75.75 0 0 1 .53-.22h3.717a.75.75 0 0 0 0-1.5zM4.452 9.763l1.7-4.54c.22-.586.78-.974 1.406-.973h8.883a1.5 1.5 0 0 1 1.404.973l1.7 4.54.702-1.013H3.75l.702 1.013zm-1.404-.526a.75.75 0 0 0 .702 1.013h16.497a.75.75 0 0 0 .702-1.013l-1.7-4.54a3 3 0 0 0-2.808-1.947H7.559a2.999 2.999 0 0 0-2.811 1.947l-1.7 4.54zM4.28 8.97l-1.5-1.5a.75.75 0 0 0-.53-.22H.75a.75.75 0 0 0 0 1.5h1.5l-.53-.22 1.5 1.5a.75.75 0 1 0 1.06-1.06zm16.5 1.06l1.5-1.5-.53.22h1.5a.75.75 0 0 0 0-1.5h-1.5a.75.75 0 0 0-.53.22l-1.5 1.5a.75.75 0 1 0 1.06 1.06zM1.5 17v1.5a2.25 2.25 0 0 0 4.5 0V17a.75.75 0 0 0-.75-.75h-3a.75.75 0 0 0-.75.75zM3 17l-.75.75h3L4.5 17v1.5a.75.75 0 0 1-1.5 0V17zm18 0v1.5a.75.75 0 0 1-1.5 0V17l-.75.75h3L21 17zm1.5 0a.75.75 0 0 0-.75-.75h-3A.75.75 0 0 0 18 17v1.5a2.25 2.25 0 0 0 4.5 0V17z" />
            </svg>