<svg
              width="200"
              viewBox="0 0 268 27"
              fill="none"
              xmlns="http://www.w3.org/2000/svg"
            >
              <g clipPath="url(#clip0_4343_49820)">
                <path
                  d="M63.54 2.46602C63.5418 1.9783 63.6881 1.50205 63.9606 1.09751C64.2331 0.692977 64.6194 0.378313 65.0706 0.193316C65.5219 0.00831731 66.0179 -0.0387064 66.4959 0.0581905C66.9739 0.155087 67.4124 0.391553 67.756 0.737684C68.0997 1.08381 68.3329 1.52407 68.4264 2.00277C68.5197 2.48147 68.4691 2.97712 68.2808 3.42704C68.0926 3.87695 67.775 4.26093 67.3685 4.53042C66.962 4.7999 66.4847 4.9428 65.997 4.94102C65.6732 4.93984 65.3527 4.87488 65.054 4.74986C64.7553 4.62485 64.4841 4.44221 64.2559 4.21238C64.0277 3.98256 63.8471 3.71005 63.7242 3.4104C63.6015 3.11076 63.5388 2.78986 63.54 2.46602ZM104.85 21.393C105.34 21.3948 105.819 21.2512 106.228 20.9803C106.636 20.7094 106.954 20.3235 107.143 19.8714C107.331 19.4193 107.382 18.9214 107.287 18.4408C107.193 17.96 106.958 17.5182 106.612 17.1711C106.267 16.8241 105.826 16.5875 105.345 16.4913C104.864 16.3951 104.367 16.4435 103.914 16.6306C103.461 16.8176 103.074 17.1349 102.802 17.542C102.53 17.9493 102.384 18.4282 102.384 18.918C102.384 19.5729 102.643 20.2011 103.106 20.6649C103.567 21.1288 104.195 21.3906 104.85 21.393ZM23.13 6.05702C21.6116 6.073 20.1319 6.53786 18.8771 7.39305C17.6224 8.24825 16.6487 9.45551 16.0788 10.8629C15.5087 12.2704 15.3679 13.8149 15.6739 15.3023C15.9799 16.7896 16.719 18.1531 17.7984 19.2212C18.8777 20.2893 20.2489 21.0141 21.7393 21.3046C23.2297 21.595 24.7728 21.4379 26.1742 20.8532C27.5755 20.2685 28.7726 19.2823 29.6146 18.0186C30.4565 16.755 30.9059 15.2705 30.906 13.752C30.9391 12.7257 30.76 11.7034 30.3799 10.7494C29.9998 9.79553 29.4268 8.93026 28.6969 8.20793C27.967 7.48559 27.0958 6.92173 26.1379 6.55162C25.18 6.1815 24.156 6.01312 23.13 6.05702ZM23.13 17.847C21.015 17.847 19.53 16.164 19.53 13.752C19.53 11.34 21.006 9.65702 23.13 9.65702C25.254 9.65702 26.73 11.34 26.73 13.752C26.73 16.164 25.299 17.847 23.13 17.847ZM58.77 14.139C58.6189 13.8345 58.4215 13.5552 58.185 13.311L58.05 13.167L58.194 13.032C58.4204 12.787 58.6281 12.5253 58.815 12.249L62.766 6.35402H57.969L54.99 10.971C54.8627 11.1098 54.7038 11.2159 54.5267 11.2801C54.3496 11.3443 54.1597 11.365 53.973 11.34H53.298V2.61902C53.298 0.882018 52.209 0.639018 51.039 0.639018H49.032V21.222H53.289V15.048H53.685C54.171 15.048 54.504 15.102 54.657 15.372L57.015 19.773C57.2196 20.258 57.5807 20.6607 58.0406 20.9167C58.5005 21.1728 59.033 21.2676 59.553 21.186H62.82L60.381 17.163L58.77 14.139ZM79.443 6.02102C78.6372 6.00315 77.8366 6.15406 77.0926 6.46406C76.3486 6.77405 75.6777 7.23628 75.123 7.82102L74.862 8.08202L74.772 7.72202C74.6335 7.27925 74.3419 6.90025 73.9494 6.65289C73.5569 6.40553 73.0892 6.30596 72.63 6.37202H70.713V21.213H74.961V14.373C74.9475 13.7627 75.0357 13.1543 75.222 12.573C75.4181 11.8172 75.8631 11.1495 76.4852 10.6775C77.1073 10.2057 77.8702 9.95708 78.651 9.97202C79.965 9.97202 80.451 10.665 80.451 12.474V18.945C80.4015 19.2529 80.4257 19.5682 80.5217 19.8648C80.6178 20.1616 80.7827 20.4312 81.0032 20.6517C81.2238 20.8723 81.4935 21.0373 81.7902 21.1333C82.0868 21.2293 82.4021 21.2535 82.71 21.204H84.708V11.763C84.735 8.01002 82.908 6.02102 79.443 6.02102ZM66.051 6.35402H64.053V21.222H68.283V8.62202C68.3311 8.31639 68.3068 8.00376 68.2122 7.70921C68.1176 7.41466 67.9552 7.14637 67.7382 6.92586C67.5212 6.70536 67.2556 6.53877 66.9625 6.43946C66.6696 6.34016 66.3574 6.3109 66.051 6.35402ZM39.744 6.05702C38.2256 6.073 36.7459 6.53786 35.4911 7.39305C34.2364 8.24825 33.2627 9.45551 32.6928 10.8629C32.1227 12.2704 31.9819 13.8149 32.2879 15.3023C32.5939 16.7896 33.333 18.1531 34.4124 19.2212C35.4917 20.2893 36.8629 21.0141 38.3533 21.3046C39.8437 21.595 41.3868 21.4379 42.7882 20.8532C44.1895 20.2685 45.3865 19.2823 46.2286 18.0186C47.0705 16.755 47.5199 15.2705 47.52 13.752C47.5531 12.7257 47.374 11.7034 46.9939 10.7494C46.6138 9.79553 46.0408 8.93026 45.3109 8.20793C44.581 7.48559 43.7098 6.92173 42.7519 6.55162C41.794 6.1815 40.77 6.01312 39.744 6.05702ZM39.744 17.847C37.629 17.847 36.144 16.164 36.144 13.752C36.144 11.34 37.62 9.65702 39.744 9.65702C41.868 9.65702 43.344 11.34 43.344 13.752C43.344 16.164 41.913 17.847 39.744 17.847ZM130.401 6.05702C128.883 6.073 127.403 6.53786 126.148 7.39305C124.893 8.24825 123.92 9.45551 123.349 10.8629C122.78 12.2704 122.638 13.8149 122.944 15.3023C123.25 16.7896 123.99 18.1531 125.069 19.2212C126.148 20.2893 127.52 21.0141 129.01 21.3046C130.501 21.595 132.043 21.4379 133.445 20.8532C134.846 20.2685 136.044 19.2823 136.885 18.0186C137.728 16.755 138.177 15.2705 138.177 13.752C138.21 12.7257 138.031 11.7034 137.651 10.7494C137.271 9.79553 136.698 8.93026 135.967 8.20793C135.238 7.48559 134.366 6.92173 133.409 6.55162C132.451 6.1815 131.427 6.01312 130.401 6.05702ZM130.401 17.847C128.286 17.847 126.801 16.164 126.801 13.752C126.801 11.34 128.277 9.65702 130.401 9.65702C132.525 9.65702 134.001 11.34 134.001 13.752C134.001 16.164 132.57 17.847 130.401 17.847ZM98.766 6.31802C98.4204 6.28459 98.073 6.35177 97.7643 6.51144C97.4565 6.67112 97.2009 6.9165 97.029 7.21802L96.921 7.44302L96.723 7.27202C95.6277 6.37512 94.2399 5.91367 92.826 5.97602C88.875 5.97602 86.202 8.95502 86.202 13.383C86.202 17.811 88.965 20.898 92.907 20.898C94.0689 20.9512 95.2155 20.6155 96.165 19.944L96.489 19.692V20.106C96.489 22.095 95.202 23.193 92.889 23.193C91.9179 23.1795 90.9558 23 90.045 22.662C89.8706 22.5732 89.6777 22.5266 89.482 22.5259C89.2862 22.5251 89.0931 22.5704 88.9179 22.6579C88.7429 22.7455 88.5908 22.8729 88.4739 23.0299C88.357 23.1869 88.2787 23.3692 88.245 23.562L87.426 25.614L87.723 25.767C89.3334 26.5676 91.1088 26.9805 92.907 26.973C96.507 26.973 100.71 25.119 100.71 19.926V6.31802H98.766ZM93.654 17.199C91.35 17.199 90.522 15.174 90.522 13.284C90.522 12.447 90.729 9.68403 93.429 9.68403C94.77 9.68403 96.57 10.062 96.57 13.374C96.57 16.542 94.986 17.199 93.654 17.199ZM11.781 10.665L11.16 10.323L11.7 9.87303C12.2493 9.39009 12.6856 8.7923 12.978 8.12194C13.2704 7.45158 13.4117 6.7251 13.392 5.99402C13.392 2.75402 10.881 0.666018 7.011 0.666018H2.079C1.52645 0.686682 1.00288 0.918456 0.616109 1.3136C0.229339 1.70874 0.00882919 2.23716 0 2.79002V21.15H7.092C11.403 21.15 14.193 18.801 14.193 15.156C14.2294 14.2602 14.0247 13.371 13.6004 12.581C13.1763 11.7911 12.5479 11.1295 11.781 10.665ZM3.933 5.47202C3.933 4.51802 4.338 4.06802 5.22 4.01402H7.02C7.34484 3.98487 7.6721 4.02756 7.97859 4.13905C8.28508 4.25054 8.56328 4.42811 8.79347 4.65915C9.02367 4.8902 9.20016 5.16907 9.3105 5.47597C9.42084 5.78287 9.46233 6.1103 9.432 6.43502C9.46746 6.76469 9.43119 7.09814 9.32544 7.41241C9.21978 7.72668 9.04716 8.01432 8.81968 8.25552C8.59216 8.49672 8.31508 8.68576 8.00751 8.80962C7.69994 8.93348 7.36918 8.98922 7.038 8.97302H3.933V5.47202ZM7.38 17.676H3.933V13.554C3.933 12.654 4.284 12.213 5.031 12.105H7.38C8.09139 12.1454 8.76033 12.4566 9.24966 12.9745C9.73899 13.4925 10.0116 14.178 10.0116 14.8905C10.0116 15.6031 9.73899 16.2886 9.24966 16.8065C8.76033 17.3245 8.09139 17.6355 7.38 17.676ZM157.077 6.06602C156.202 6.06932 155.34 6.2692 154.553 6.65088C153.767 7.03256 153.076 7.58626 152.532 8.27102L152.226 8.66702L151.983 8.22602C151.593 7.51952 151.008 6.94018 150.298 6.55715C149.588 6.17413 148.783 6.00363 147.978 6.06602C147.244 6.07798 146.518 6.2398 145.849 6.54157C145.178 6.84334 144.577 7.2787 144.081 7.82102L143.685 8.25302L143.532 7.68602C143.391 7.26439 143.107 6.90556 142.728 6.67203C142.35 6.4385 141.902 6.34507 141.462 6.40802H139.662V21.213H143.676V14.679C143.681 14.0966 143.754 13.5169 143.892 12.951C144.279 11.367 145.341 9.66603 147.123 9.83703C148.221 9.94503 148.761 10.791 148.761 12.438V21.213H152.829V14.679C152.812 14.0711 152.887 13.4641 153.054 12.879C153.378 11.376 154.485 9.82802 156.204 9.82802C157.446 9.82802 157.905 10.53 157.905 12.429V19.053C157.905 20.547 158.571 21.213 160.065 21.213H162V11.763C162 7.98302 160.335 6.06602 157.077 6.06602ZM120.321 16.074C119.259 17.1855 117.822 17.8624 116.289 17.973C115.734 18.0066 115.177 17.9226 114.655 17.7266C114.134 17.5306 113.661 17.2269 113.265 16.8354C112.869 16.4439 112.56 15.9734 112.359 15.4545C112.157 14.9356 112.067 14.38 112.095 13.824C112.048 13.2754 112.117 12.7229 112.298 12.2029C112.48 11.6829 112.769 11.2072 113.147 10.8069C113.526 10.4066 113.984 10.0908 114.493 9.88022C115.002 9.66962 115.549 9.569 116.1 9.58502C116.856 9.58502 117.72 9.85502 117.855 10.314V10.395C117.943 10.7088 118.132 10.9851 118.392 11.1816C118.651 11.3783 118.969 11.4845 119.295 11.484H121.5V9.54902C121.5 6.99302 118.251 6.06602 116.1 6.06602C111.429 6.06602 108 9.33303 108 13.815C108 18.297 111.357 21.573 115.974 21.573C117.16 21.5606 118.331 21.305 119.415 20.822C120.498 20.339 121.472 19.6389 122.274 18.765L120.6 15.822L120.321 16.074Z"
                  fill="white"
                />
              </g>
              <path
                d="M189.32 17.8081C188.984 18.3121 188.573 18.7881 188.088 19.2361C187.621 19.6841 187.071 20.0761 186.436 20.4121C185.82 20.7481 185.129 21.0095 184.364 21.1961C183.617 21.4015 182.796 21.5041 181.9 21.5041C180.407 21.5041 179.025 21.2428 177.756 20.7201C176.487 20.1975 175.395 19.4788 174.48 18.5641C173.565 17.6308 172.847 16.5295 172.324 15.2601C171.82 13.9908 171.568 12.6001 171.568 11.0881C171.568 9.57612 171.829 8.18545 172.352 6.91612C172.875 5.64678 173.593 4.55478 174.508 3.64012C175.441 2.70679 176.533 1.97879 177.784 1.45612C179.053 0.933452 180.425 0.672119 181.9 0.672119C182.628 0.672119 183.337 0.746785 184.028 0.896118C184.737 1.04545 185.4 1.26012 186.016 1.54012C186.632 1.80145 187.192 2.12812 187.696 2.52012C188.2 2.89345 188.62 3.32279 188.956 3.80812L187.276 5.04012C187.071 4.72279 186.791 4.40545 186.436 4.08812C186.1 3.77078 185.699 3.49079 185.232 3.24812C184.765 3.00545 184.252 2.80945 183.692 2.66012C183.151 2.51078 182.563 2.43612 181.928 2.43612C180.64 2.43612 179.483 2.66945 178.456 3.13612C177.448 3.60279 176.589 4.23745 175.88 5.04012C175.171 5.82412 174.629 6.73879 174.256 7.78412C173.883 8.82945 173.696 9.93079 173.696 11.0881C173.696 12.2455 173.883 13.3468 174.256 14.3921C174.648 15.4375 175.199 16.3615 175.908 17.1641C176.617 17.9481 177.476 18.5735 178.484 19.0401C179.511 19.5068 180.659 19.7401 181.928 19.7401C183.067 19.7401 184.149 19.5068 185.176 19.0401C186.203 18.5735 187.061 17.8268 187.752 16.8001L189.32 17.8081Z"
                fill="white"
              />
              <path
                d="M200.44 12.5441C200.44 11.4055 200.141 10.5561 199.544 9.99612C198.947 9.43612 198.079 9.15612 196.94 9.15612C196.156 9.15612 195.428 9.29612 194.756 9.57612C194.084 9.85612 193.515 10.2295 193.048 10.6961L191.984 9.43612C192.525 8.89478 193.235 8.44678 194.112 8.09212C195.008 7.73745 196.016 7.56012 197.136 7.56012C197.845 7.56012 198.508 7.66279 199.124 7.86812C199.74 8.05479 200.281 8.34412 200.748 8.73612C201.215 9.12812 201.579 9.62279 201.84 10.2201C202.101 10.8175 202.232 11.5175 202.232 12.3201V18.0601C202.232 18.5641 202.251 19.0868 202.288 19.6281C202.325 20.1695 202.381 20.6268 202.456 21.0001H200.748C200.692 20.6828 200.645 20.3375 200.608 19.9641C200.571 19.5908 200.552 19.2268 200.552 18.8721H200.496C199.899 19.7495 199.217 20.3841 198.452 20.7761C197.705 21.1495 196.8 21.3361 195.736 21.3361C195.232 21.3361 194.709 21.2615 194.168 21.1121C193.645 20.9815 193.16 20.7575 192.712 20.4401C192.283 20.1228 191.919 19.7121 191.62 19.2081C191.34 18.7041 191.2 18.0881 191.2 17.3601C191.2 16.3521 191.452 15.5588 191.956 14.9801C192.479 14.3828 193.169 13.9441 194.028 13.6641C194.887 13.3655 195.867 13.1788 196.968 13.1041C198.088 13.0108 199.245 12.9641 200.44 12.9641V12.5441ZM199.88 14.4481C199.096 14.4481 198.303 14.4855 197.5 14.5601C196.716 14.6161 195.997 14.7468 195.344 14.9521C194.709 15.1388 194.187 15.4188 193.776 15.7921C193.365 16.1655 193.16 16.6601 193.16 17.2761C193.16 17.7428 193.244 18.1348 193.412 18.4521C193.599 18.7695 193.841 19.0308 194.14 19.2361C194.439 19.4228 194.765 19.5628 195.12 19.6561C195.493 19.7308 195.867 19.7681 196.24 19.7681C196.912 19.7681 197.509 19.6561 198.032 19.4321C198.555 19.1895 198.993 18.8721 199.348 18.4801C199.703 18.0695 199.973 17.6028 200.16 17.0801C200.347 16.5575 200.44 16.0068 200.44 15.4281V14.4481H199.88Z"
                fill="white"
              />
              <path
                d="M207.137 10.7801C207.137 10.4255 207.128 9.96812 207.109 9.40812C207.09 8.84812 207.062 8.34412 207.025 7.89612H208.845C208.882 8.25078 208.91 8.64278 208.929 9.07212C208.948 9.50145 208.957 9.85612 208.957 10.1361H209.013C209.386 9.37079 209.946 8.75479 210.693 8.28812C211.44 7.80279 212.28 7.56012 213.213 7.56012C213.456 7.56012 213.67 7.56945 213.857 7.58812C214.062 7.60679 214.268 7.64412 214.473 7.70012L214.221 9.49212C214.109 9.45479 213.922 9.41745 213.661 9.38012C213.4 9.34278 213.138 9.32412 212.877 9.32412C212.373 9.32412 211.888 9.41745 211.421 9.60412C210.954 9.79079 210.544 10.0895 210.189 10.5001C209.853 10.8921 209.573 11.4055 209.349 12.0401C209.144 12.6561 209.041 13.4028 209.041 14.2801V21.0001H207.137V10.7801Z"
                fill="white"
              />
              <path
                d="M226.731 13.4401C226.675 12.2081 226.273 11.1908 225.527 10.3881C224.799 9.56679 223.753 9.15612 222.391 9.15612C221.756 9.15612 221.168 9.27745 220.627 9.52012C220.085 9.74412 219.609 10.0615 219.199 10.4721C218.788 10.8641 218.461 11.3215 218.219 11.8441C217.976 12.3481 217.836 12.8801 217.799 13.4401H226.731ZM228.663 14.0561C228.663 14.1868 228.663 14.3268 228.663 14.4761C228.663 14.6255 228.653 14.7841 228.635 14.9521H217.771C217.789 15.6055 217.92 16.2215 218.163 16.8001C218.405 17.3788 218.741 17.8828 219.171 18.3121C219.6 18.7415 220.104 19.0868 220.683 19.3481C221.261 19.5908 221.887 19.7121 222.559 19.7121C223.548 19.7121 224.397 19.4881 225.107 19.0401C225.835 18.5735 226.385 18.0415 226.759 17.4441L228.187 18.5641C227.403 19.5535 226.535 20.2628 225.583 20.6921C224.649 21.1215 223.641 21.3361 222.559 21.3361C221.588 21.3361 220.683 21.1681 219.843 20.8321C219.021 20.4775 218.312 19.9921 217.715 19.3761C217.117 18.7601 216.641 18.0321 216.287 17.1921C215.951 16.3521 215.783 15.4375 215.783 14.4481C215.783 13.4588 215.951 12.5441 216.287 11.7041C216.623 10.8641 217.089 10.1361 217.687 9.52012C218.284 8.90412 218.984 8.42812 219.787 8.09212C220.589 7.73745 221.457 7.56012 222.391 7.56012C223.417 7.56012 224.323 7.73745 225.107 8.09212C225.891 8.42812 226.544 8.89479 227.067 9.49212C227.589 10.0708 227.981 10.7521 228.243 11.5361C228.523 12.3201 228.663 13.1601 228.663 14.0561Z"
                fill="white"
              />
              <path
                d="M242.754 13.4401C242.698 12.2081 242.297 11.1908 241.55 10.3881C240.822 9.56679 239.777 9.15612 238.414 9.15612C237.779 9.15612 237.191 9.27745 236.65 9.52012C236.109 9.74412 235.633 10.0615 235.222 10.4721C234.811 10.8641 234.485 11.3215 234.242 11.8441C233.999 12.3481 233.859 12.8801 233.822 13.4401H242.754ZM244.686 14.0561C244.686 14.1868 244.686 14.3268 244.686 14.4761C244.686 14.6255 244.677 14.7841 244.658 14.9521H233.794C233.813 15.6055 233.943 16.2215 234.186 16.8001C234.429 17.3788 234.765 17.8828 235.194 18.3121C235.623 18.7415 236.127 19.0868 236.706 19.3481C237.285 19.5908 237.91 19.7121 238.582 19.7121C239.571 19.7121 240.421 19.4881 241.13 19.0401C241.858 18.5735 242.409 18.0415 242.782 17.4441L244.21 18.5641C243.426 19.5535 242.558 20.2628 241.606 20.6921C240.673 21.1215 239.665 21.3361 238.582 21.3361C237.611 21.3361 236.706 21.1681 235.866 20.8321C235.045 20.4775 234.335 19.9921 233.738 19.3761C233.141 18.7601 232.665 18.0321 232.31 17.1921C231.974 16.3521 231.806 15.4375 231.806 14.4481C231.806 13.4588 231.974 12.5441 232.31 11.7041C232.646 10.8641 233.113 10.1361 233.71 9.52012C234.307 8.90412 235.007 8.42812 235.81 8.09212C236.613 7.73745 237.481 7.56012 238.414 7.56012C239.441 7.56012 240.346 7.73745 241.13 8.09212C241.914 8.42812 242.567 8.89479 243.09 9.49212C243.613 10.0708 244.005 10.7521 244.266 11.5361C244.546 12.3201 244.686 13.1601 244.686 14.0561Z"
                fill="white"
              />
              <path
                d="M248.782 10.7801C248.782 10.4255 248.772 9.96812 248.754 9.40812C248.735 8.84812 248.707 8.34412 248.67 7.89612H250.49C250.527 8.25078 250.555 8.64278 250.574 9.07212C250.592 9.50145 250.602 9.85612 250.602 10.1361H250.658C251.031 9.37079 251.591 8.75479 252.338 8.28812C253.084 7.80279 253.924 7.56012 254.858 7.56012C255.1 7.56012 255.315 7.56945 255.502 7.58812C255.707 7.60679 255.912 7.64412 256.118 7.70012L255.866 9.49212C255.754 9.45479 255.567 9.41745 255.306 9.38012C255.044 9.34278 254.783 9.32412 254.522 9.32412C254.018 9.32412 253.532 9.41745 253.066 9.60412C252.599 9.79079 252.188 10.0895 251.834 10.5001C251.498 10.8921 251.218 11.4055 250.994 12.0401C250.788 12.6561 250.686 13.4028 250.686 14.2801V21.0001H248.782V10.7801Z"
                fill="white"
              />
              <path
                d="M265.843 11.0041C265.563 10.4628 265.134 10.0241 264.555 9.68812C263.995 9.33345 263.351 9.15612 262.623 9.15612C262.287 9.15612 261.951 9.19345 261.615 9.26812C261.279 9.34279 260.981 9.46412 260.719 9.63212C260.458 9.80012 260.243 10.0148 260.075 10.2761C259.926 10.5375 259.851 10.8455 259.851 11.2001C259.851 11.8161 260.103 12.2921 260.607 12.6281C261.111 12.9455 261.905 13.2161 262.987 13.4401C264.537 13.7575 265.675 14.2241 266.403 14.8401C267.15 15.4375 267.523 16.2495 267.523 17.2761C267.523 18.0228 267.374 18.6575 267.075 19.1801C266.795 19.6841 266.422 20.1041 265.955 20.4401C265.489 20.7575 264.957 20.9815 264.359 21.1121C263.781 21.2615 263.193 21.3361 262.595 21.3361C261.606 21.3361 260.645 21.1308 259.711 20.7201C258.778 20.3095 258.013 19.6655 257.415 18.7881L258.927 17.6681C259.263 18.2468 259.758 18.7321 260.411 19.1241C261.065 19.5161 261.783 19.7121 262.567 19.7121C262.978 19.7121 263.37 19.6748 263.743 19.6001C264.117 19.5255 264.443 19.3948 264.723 19.2081C265.003 19.0215 265.227 18.7881 265.395 18.5081C265.563 18.2095 265.647 17.8455 265.647 17.4161C265.647 16.7255 265.311 16.2121 264.639 15.8761C263.986 15.5215 263.034 15.1948 261.783 14.8961C261.391 14.8028 260.971 14.6908 260.523 14.5601C260.094 14.4108 259.693 14.2055 259.319 13.9441C258.946 13.6641 258.638 13.3188 258.395 12.9081C258.153 12.4975 258.031 11.9841 258.031 11.3681C258.031 10.6961 258.162 10.1268 258.423 9.66012C258.685 9.17479 259.03 8.78279 259.459 8.48412C259.907 8.16679 260.411 7.93345 260.971 7.78412C261.531 7.63479 262.11 7.56012 262.707 7.56012C263.622 7.56012 264.509 7.76545 265.367 8.17612C266.226 8.58678 266.87 9.16545 267.299 9.91212L265.843 11.0041Z"
                fill="white"
              />
              <defs>
                <clipPath id="clip0_4343_49820">
                  <rect width="162" height="27" fill="white" />
                </clipPath>
              </defs>
            </svg>